<svg id="b688a6ec-4373-4e75-90df-956a36d1aa66" data-name="Layer 2" xmlns="http://www.w3.org/2000/svg" viewBox="0 0 381 436"><defs><style>.e47fd185-4d91-46c8-9cd6-b40ab4d5744a{fill:#fff;}.aa2a917f-54f8-411e-908a-2dddc4c6bd29{fill:#5a36a8;}.a5d4730e-d905-48b7-9910-c0b1f1123e69{fill:#f9a926;}.a39fc5e5-8b39-4bc4-ad84-210517c545cf{fill:none;stroke:#fff;stroke-miterlimit:10;stroke-width:8px;}.ea2c232a-9e31-4063-8767-9f41b36e3f5a{fill:#f26264;}</style></defs><polygon class="e47fd185-4d91-46c8-9cd6-b40ab4d5744a" points="159.08 103 119.08 103 119.08 22 159.08 16 159.08 103"/><polygon class="e47fd185-4d91-46c8-9cd6-b40ab4d5744a" points="263.08 68 231.08 76 196.08 44 262.08 37 263.08 68"/><path class="aa2a917f-54f8-411e-908a-2dddc4c6bd29" d="M346.08,37V48.4l-87,20.6V54s-17-12-59-7c0,0,45,4,51,12v66h-25.8a142.74,142.74,0,0,0-81.9,0h-27.3V64.61L24.08,49V38l107-18,2,50.5-6,20.5s11,12,21,0L142,70.5,140.08,19l45-8Z"/><circle class="e47fd185-4d91-46c8-9cd6-b40ab4d5744a" cx="185.58" cy="261.5" r="144.5"/><path class="aa2a917f-54f8-411e-908a-2dddc4c6bd29" d="M221.84,346.92v68q-4.69,1.1-9.5,1.9c-2.48.41-5,.77-7.5,1.06s-5,.54-7.5.71q-5.58.4-11.26.4-6.95,0-13.74-.59c-2.52-.22-5-.49-7.5-.83s-5-.73-7.5-1.19q-6.09-1.12-12-2.7V347l3.37-8,.21-.5,16-38L166,298l1.27-3,2.31-5.5,13.76-32.62.5-.08,13.79,32.7L200,295l1.26,3,1,2.5,16,38,.21.5Z"/><polygon class="a5d4730e-d905-48b7-9910-c0b1f1123e69" points="218.5 339 148.71 339 148.92 338.5 164.95 300.5 166 298 201.21 298 202.26 300.5 218.29 338.5 218.5 339"/><polygon class="e47fd185-4d91-46c8-9cd6-b40ab4d5744a" points="202.26 300.5 164.95 300.5 166 298 167.27 295 169.58 289.5 197.63 289.5 199.95 295 201.21 298 202.26 300.5"/><line class="a39fc5e5-8b39-4bc4-ad84-210517c545cf" x1="186.08" y1="295" x2="209.34" y2="346"/><polygon class="e47fd185-4d91-46c8-9cd6-b40ab4d5744a" points="221.84 346.92 221.84 353.5 145.34 353.5 145.34 347 148.71 339 148.92 338.5 218.29 338.5 218.5 339 221.84 346.92"/><path class="e47fd185-4d91-46c8-9cd6-b40ab4d5744a" d="M172.34,346v72.41c-2.52-.22-5-.49-7.5-.83s-5-.73-7.5-1.19V346Z"/><path class="e47fd185-4d91-46c8-9cd6-b40ab4d5744a" d="M212.34,346v70.83c-2.48.41-5,.77-7.5,1.06s-5,.54-7.5.71V346Z"/><path class="ea2c232a-9e31-4063-8767-9f41b36e3f5a" d="M245.58,137.5v83.06a195.28,195.28,0,0,0-28,8.9,129.16,129.16,0,0,0-18,8.84,62.48,62.48,0,0,0-15.5,12.56c-17.5-20.64-61.5-30.3-61.5-30.3V137.5a166.91,166.91,0,0,1,31,9,105.57,105.57,0,0,1,20,10.43,60.34,60.34,0,0,1,10.5,8.95C203.58,144.5,245.58,137.5,245.58,137.5Z"/><path class="e47fd185-4d91-46c8-9cd6-b40ab4d5744a" d="M162.35,216.79l-39.77-18.45V181.69l31,14.31V146.47a105.57,105.57,0,0,1,20,10.43v55.65A6,6,0,0,1,165,218Z"/><path class="e47fd185-4d91-46c8-9cd6-b40ab4d5744a" d="M245.58,155.42v19.44c-10.9,4.58-28,14.14-28,14.14v40.46a129.16,129.16,0,0,0-18,8.84V187.92a13.83,13.83,0,0,1,4.58-10.34C218.56,164.7,235.74,158.28,245.58,155.42Z"/><path class="aa2a917f-54f8-411e-908a-2dddc4c6bd29" d="M251.83,117.75l-.75-.34A158.66,158.66,0,0,0,184.83,103a156.42,156.42,0,0,0-68,15.46l-.75.37A158.66,158.66,0,0,0,26.58,261.5c0,73.32,50,135.17,117.76,153.19q5.91,1.57,12,2.7c2.48.46,5,.85,7.5,1.19s5,.61,7.5.83q6.79.58,13.74.59,5.68,0,11.26-.4,3.78-.25,7.5-.71c2.52-.29,5-.65,7.5-1.06q4.8-.81,9.5-1.9c70.24-16.26,122.74-79.32,122.74-154.43A158.71,158.71,0,0,0,251.83,117.75Zm-31,281.71q-4.68,1.21-9.5,2.11-3.72.71-7.5,1.2t-7.5.78q-5.58.45-11.26.45c-4.63,0-9.22-.22-13.74-.66q-3.78-.36-7.5-.92t-7.5-1.33c-4.06-.84-8.07-1.85-12-3C85.56,380.5,42.58,325.92,42.58,261.5S85.45,142.63,144.13,125a142,142,0,0,1,40.58-6h.37A142,142,0,0,1,226,125c58.68,17.63,101.55,72.16,101.55,136.5C327.58,327.73,282.17,383.55,220.84,399.46Z"/></svg>